<?xml version="1.0" encoding="UTF-8"?>
<!DOCTYPE svg PUBLIC "-//W3C//DTD SVG 1.1//EN" "http://www.w3.org/Graphics/SVG/1.1/DTD/svg11.dtd">
<svg xmlns="http://www.w3.org/2000/svg" version="1.1" width="240px" height="40px" style="shape-rendering:geometricPrecision; text-rendering:geometricPrecision; image-rendering:optimizeQuality; fill-rule:evenodd; clip-rule:evenodd" xmlns:xlink="http://www.w3.org/1999/xlink">
<g><path style="opacity:1" fill="#f1160e" d="M -0.5,-0.5 C 37.5,-0.5 75.5,-0.5 113.5,-0.5C 109.298,12.7735 105.298,26.1069 101.5,39.5C 67.5,39.5 33.5,39.5 -0.5,39.5C -0.5,26.1667 -0.5,12.8333 -0.5,-0.5 Z"/></g>
<g><path style="opacity:1" fill="#150b6a" d="M 113.5,-0.5 C 155.5,-0.5 197.5,-0.5 239.5,-0.5C 239.5,12.8333 239.5,26.1667 239.5,39.5C 193.5,39.5 147.5,39.5 101.5,39.5C 105.298,26.1069 109.298,12.7735 113.5,-0.5 Z"/></g>
<g><path style="opacity:1" fill="#fff1f0" d="M 8.5,11.5 C 11.8499,11.335 15.1832,11.5017 18.5,12C 19.951,14.394 19.6176,16.5607 17.5,18.5C 20.1003,21.2937 20.1003,24.127 17.5,27C 13.5138,27.4988 9.51383,27.6655 5.5,27.5C 6.49526,22.1764 7.49526,16.8431 8.5,11.5 Z"/></g>
<g><path style="opacity:1" fill="#fff1f1" d="M 24.5,11.5 C 28.4367,11.2065 32.27,11.5399 36,12.5C 37.271,16.1661 36.1044,18.6661 32.5,20C 34.2785,22.1354 34.9452,24.6354 34.5,27.5C 33.5,27.5 32.5,27.5 31.5,27.5C 31.5472,24.427 30.3806,22.0937 28,20.5C 25.8659,22.2871 25.0325,24.6205 25.5,27.5C 24.5,27.5 23.5,27.5 22.5,27.5C 23.2965,22.1839 23.9631,16.8506 24.5,11.5 Z"/></g>
<g><path style="opacity:1" fill="#ffedec" d="M 40.5,11.5 C 41.8734,11.3433 43.2068,11.51 44.5,12C 42.9275,17.0301 41.9275,22.1967 41.5,27.5C 40.1266,27.6567 38.7932,27.49 37.5,27C 38.8153,21.9228 39.8153,16.7562 40.5,11.5 Z"/></g>
<g><path style="opacity:1" fill="#fff2f1" d="M 47.5,11.5 C 51.8839,11.1744 56.2172,11.5078 60.5,12.5C 58.604,13.4656 56.604,13.7989 54.5,13.5C 53.704,18.147 53.0373,22.8137 52.5,27.5C 51.1266,27.6567 49.7932,27.49 48.5,27C 49.4438,22.8491 50.4438,18.6824 51.5,14.5C 49.6684,13.9432 48.3351,12.9432 47.5,11.5 Z"/></g>
<g><path style="opacity:1" fill="#ffe8e7" d="M 63.5,10.5 C 64.5,10.5 65.5,10.5 66.5,10.5C 65.1453,15.7716 63.9787,21.1049 63,26.5C 61.9887,27.3366 60.8221,27.67 59.5,27.5C 60.4321,21.7113 61.7654,16.0447 63.5,10.5 Z"/></g>
<g><path style="opacity:1" fill="#ffebeb" d="M 72.5,10.5 C 75.8934,10.0617 78.8934,10.8951 81.5,13C 80.6667,13.8333 79.8333,14.6667 79,15.5C 77.2672,13.3985 75.2672,13.0652 73,14.5C 72.3828,15.4491 72.5494,16.2825 73.5,17C 79.7294,18.3785 81.0627,21.7119 77.5,27C 73.216,29.4533 69.5493,28.7866 66.5,25C 67.0253,24.3076 67.6919,23.8076 68.5,23.5C 70.881,25.3959 73.381,25.7292 76,24.5C 76.7494,23.365 76.5827,22.365 75.5,21.5C 68.8098,19.3816 67.8098,15.715 72.5,10.5 Z"/></g>
<g><path style="opacity:1" fill="#fff2f1" d="M 85.5,11.5 C 86.675,11.281 87.675,11.6143 88.5,12.5C 87.6906,14.0709 87.3573,15.7376 87.5,17.5C 90.1667,17.5 92.8333,17.5 95.5,17.5C 95.3573,15.7376 95.6906,14.0709 96.5,12.5C 97.5,11.1667 98.5,11.1667 99.5,12.5C 98.1153,17.4237 97.1153,22.4237 96.5,27.5C 95.5,27.5 94.5,27.5 93.5,27.5C 93.2436,25.2075 93.5769,23.0408 94.5,21C 91.854,20.5026 89.1873,20.3359 86.5,20.5C 86.0074,22.8056 85.6741,25.139 85.5,27.5C 84.5,27.5 83.5,27.5 82.5,27.5C 82.7315,22.0098 83.7315,16.6764 85.5,11.5 Z"/></g>
<g><path style="opacity:1" fill="#e6e5ef" d="M 119.5,10.5 C 121.144,10.2865 122.644,10.6198 124,11.5C 124.977,16.7926 125.477,22.1259 125.5,27.5C 124.5,27.5 123.5,27.5 122.5,27.5C 122.5,26.5 122.5,25.5 122.5,24.5C 120.143,24.3367 117.81,24.5034 115.5,25C 114.781,27.5562 113.114,28.7229 110.5,28.5C 112.954,22.2588 115.954,16.2588 119.5,10.5 Z"/></g>
<g><path style="opacity:1" fill="#e8e7f1" d="M 135.5,10.5 C 138.32,10.2475 140.986,10.7475 143.5,12C 144.337,13.0113 144.67,14.1779 144.5,15.5C 137.986,11.6367 133.986,13.4701 132.5,21C 132.439,22.7106 133.106,24.044 134.5,25C 137.284,25.1998 139.784,24.3665 142,22.5C 142.5,22.8333 143,23.1667 143.5,23.5C 139.613,29.1218 135.113,29.7884 130,25.5C 129.333,22.5 129.333,19.5 130,16.5C 131.36,13.9774 133.193,11.9774 135.5,10.5 Z"/></g>
<g><path style="opacity:1" fill="#e6e4ef" d="M 158.5,23.5 C 158.5,24.8333 158.5,26.1667 158.5,27.5C 157.5,27.5 156.5,27.5 155.5,27.5C 155.5,26.5 155.5,25.5 155.5,24.5C 153.143,24.3367 150.81,24.5034 148.5,25C 147.716,27.9979 146.049,28.8312 143.5,27.5C 146.627,22.08 149.627,16.58 152.5,11C 154.112,10.2797 155.612,10.4464 157,11.5C 158.015,15.4402 158.515,19.4402 158.5,23.5 Z"/></g>
<g><path style="opacity:1" fill="#e1dfec" d="M 165.5,10.5 C 177.057,9.52809 180.557,14.1948 176,24.5C 171.789,28.3592 166.956,29.3592 161.5,27.5C 162.729,21.7786 164.063,16.1119 165.5,10.5 Z"/></g>
<g><path style="opacity:1" fill="#e7e5f0" d="M 184.5,23.5 C 183.957,23.56 183.624,23.8933 183.5,24.5C 186.086,25.48 188.753,25.8134 191.5,25.5C 191.5,26.1667 191.5,26.8333 191.5,27.5C 187.351,28.0803 183.684,27.4136 180.5,25.5C 181.138,20.8103 181.971,16.1436 183,11.5C 186.73,10.5399 190.563,10.2065 194.5,10.5C 194.5,11.5 194.5,12.5 194.5,13.5C 191.813,13.3359 189.146,13.5026 186.5,14C 185.663,15.0113 185.33,16.1779 185.5,17.5C 187.833,17.5 190.167,17.5 192.5,17.5C 192.5,18.5 192.5,19.5 192.5,20.5C 189.833,20.5 187.167,20.5 184.5,20.5C 184.5,21.5 184.5,22.5 184.5,23.5 Z"/></g>
<g><path style="opacity:1" fill="#e1dfec" d="M 198.5,10.5 C 199.833,10.5 201.167,10.5 202.5,10.5C 203.108,14.4724 203.608,18.4724 204,22.5C 206.671,19.1631 208.837,15.4964 210.5,11.5C 212.045,10.5481 213.712,10.2148 215.5,10.5C 213.986,16.4039 212.986,22.4039 212.5,28.5C 211.167,28.5 209.833,28.5 208.5,28.5C 211.658,15.5018 210.491,15.1685 205,27.5C 203.989,28.3366 202.822,28.67 201.5,28.5C 201.608,24.753 201.108,21.0863 200,17.5C 199.012,20.4245 198.346,23.4245 198,26.5C 196.989,27.3366 195.822,27.67 194.5,27.5C 195.329,21.6854 196.662,16.0187 198.5,10.5 Z"/></g>
<g><path style="opacity:1" fill="#e5e4ee" d="M 228.5,10.5 C 229.978,10.238 231.311,10.5713 232.5,11.5C 230.573,14.35 228.406,17.0167 226,19.5C 224.979,22.1051 224.145,24.7717 223.5,27.5C 222.675,28.3857 221.675,28.719 220.5,28.5C 220.443,26.1155 220.777,23.7822 221.5,21.5C 220.481,18.1404 219.481,14.807 218.5,11.5C 219.822,11.33 220.989,11.6634 222,12.5C 222.471,14.2464 223.138,15.913 224,17.5C 225.75,15.2657 227.25,12.9324 228.5,10.5 Z"/></g>
<g><path style="opacity:1" fill="#f11a13" d="M 11.5,13.5 C 13.1667,13.5 14.8333,13.5 16.5,13.5C 16.2204,17.2253 14.2204,18.392 10.5,17C 11.3366,15.9887 11.67,14.8221 11.5,13.5 Z"/></g>
<g><path style="opacity:1" fill="#f3332a" d="M 27.5,13.5 C 29.9775,13.0508 31.9775,13.7175 33.5,15.5C 32.2776,17.9783 30.2776,18.9783 27.5,18.5C 27.5,16.8333 27.5,15.1667 27.5,13.5 Z"/></g>
<g><path style="opacity:1" fill="#261a73" d="M 167.5,13.5 C 171.525,12.5776 173.859,14.0776 174.5,18C 173.738,23.2673 170.738,25.7673 165.5,25.5C 166.793,21.6163 167.459,17.6163 167.5,13.5 Z"/></g>
<g><path style="opacity:1" fill="#382c7e" d="M 120.5,14.5 C 121.468,16.6074 121.802,18.9407 121.5,21.5C 120.022,21.762 118.689,21.4287 117.5,20.5C 118.513,18.4734 119.513,16.4734 120.5,14.5 Z"/></g>
<g><path style="opacity:1" fill="#2e2378" d="M 153.5,14.5 C 154.468,16.6074 154.802,18.9407 154.5,21.5C 153.022,21.762 151.689,21.4287 150.5,20.5C 152.038,18.7567 153.038,16.7567 153.5,14.5 Z"/></g>
<g><path style="opacity:1" fill="#f2261d" d="M 9.5,20.5 C 11.5273,20.3379 13.5273,20.5045 15.5,21C 16.727,22.5874 16.3937,23.9207 14.5,25C 12.8659,25.4935 11.1992,25.6602 9.5,25.5C 9.5,23.8333 9.5,22.1667 9.5,20.5 Z"/></g>
<g><path style="opacity:1" fill="#6a66a1" d="M 184.5,23.5 C 186.833,24.1667 189.167,24.8333 191.5,25.5C 188.753,25.8134 186.086,25.48 183.5,24.5C 183.624,23.8933 183.957,23.56 184.5,23.5 Z"/></g>
<g><path style="opacity:1" fill="#7a76ab" d="M 158.5,23.5 C 159.451,24.9187 159.784,26.5853 159.5,28.5C 157.901,28.7678 156.568,28.4345 155.5,27.5C 156.5,27.5 157.5,27.5 158.5,27.5C 158.5,26.1667 158.5,24.8333 158.5,23.5 Z"/></g>
<g><path style="opacity:1" fill="#807daf" d="M 180.5,25.5 C 183.684,27.4136 187.351,28.0803 191.5,27.5C 187.702,28.4834 183.702,28.8168 179.5,28.5C 179.263,27.209 179.596,26.209 180.5,25.5 Z"/></g>
</svg>
